<svg
  width="48px"
  height="48px"
  viewBox="0 0 48 48"
  version="1.1"
  xmlns="http://www.w3.org/2000/svg"
  xmlns:xlink="http://www.w3.org/1999/xlink"
>
  <g stroke="none" stroke-width="1" fill="none" fill-rule="evenodd">
    <g transform="translate(-446.000000, -657.000000)" fill="#969696">
      <g transform="translate(446.000000, 657.000000)">
        <path
          d="M7.2522,32.1799 C6.5282,32.1799 6.3802,32.1949 6.3802,33.0669 L6.3802,34.2919 C6.3802,35.2229 6.5282,35.2379 7.2522,35.2379 C7.9902,35.2379 8.2272,35.2229 8.2272,34.2919 L8.2272,33.0669 C8.2272,32.1949 8.0492,32.1799 7.2522,32.1799"
        ></path>
        <path
          d="M15.1692,37.8078 C14.4452,37.8078 14.2972,37.8228 14.2972,38.6948 L14.2972,39.9198 C14.2972,40.8508 14.4452,40.8658 15.1692,40.8658 C15.9072,40.8658 16.1442,40.8508 16.1442,39.9198 L16.1442,38.6948 C16.1442,37.8228 15.9662,37.8078 15.1692,37.8078"
        ></path>
        <path
          d="M17.6208,40.1418 C17.5908,41.9138 16.8968,42.1508 15.1838,42.1508 C13.4548,42.1508 12.8648,41.9288 12.8208,40.1568 L12.8208,38.5318 C12.8648,36.7588 13.4548,36.5228 15.1688,36.5228 C16.8968,36.5228 17.5908,36.7448 17.6208,38.5168 L17.6208,40.1418 Z M7.2078,42.0618 L13.7508,30.9838 L15.5238,30.9838 L8.9798,42.0618 L7.2078,42.0618 Z M4.9038,34.5288 L4.9038,32.9038 C4.9478,31.1318 5.5378,30.8958 7.2518,30.8958 C8.9798,30.8958 9.6738,31.1168 9.7038,32.8888 L9.7038,34.5138 C9.6738,36.2868 8.9798,36.5228 7.2668,36.5228 C5.5378,36.5228 4.9478,36.3008 4.9038,34.5288 Z M44.1488,24.3768 L44.1488,39.4698 C44.1488,42.0498 42.0498,44.1488 39.4698,44.1488 L20.9998,44.1488 L20.9998,33.9148 C20.9998,30.0008 17.8268,26.8278 13.9138,26.8278 L3.6788,26.8278 L3.6788,8.3578 C3.6788,5.7778 5.7778,3.6788 8.3578,3.6788 L23.4508,3.6788 L23.4508,-0.0002 L8.3578,-0.0002 C3.7488,-0.0002 -0.0002,3.7488 -0.0002,8.3578 L-0.0002,39.4698 C-0.0002,44.0788 3.7488,47.8278 8.3578,47.8278 L39.4698,47.8278 C44.0788,47.8278 47.8278,44.0788 47.8278,39.4698 L47.8278,24.3768 L44.1488,24.3768 Z"
        ></path>
        <path
          d="M35.4901,14.3699 L27.9741,21.7749 L30.0971,21.7749 C30.8301,21.7749 31.4231,22.3579 31.4231,23.0759 C31.4231,23.7939 30.8301,24.3769 30.0971,24.3769 L24.7751,24.3769 C24.6021,24.3769 24.4301,24.3419 24.2691,24.2769 C23.9451,24.1459 23.6861,23.8919 23.5531,23.5739 C23.4851,23.4159 23.4511,23.2469 23.4511,23.0779 L23.4511,17.9199 C23.4491,17.2019 24.0421,16.6189 24.7751,16.6189 C25.5081,16.6189 26.1001,17.2019 26.1001,17.9199 L26.1001,19.9359 L34.8071,11.3569 L43.3861,2.6499 L41.3701,2.6499 C40.6521,2.6499 40.0691,2.0569 40.0691,1.3239 C40.0691,0.5909 40.6521,-0.0011 41.3701,-9.99999998e-05 L46.5281,-9.99999998e-05 C46.6971,-9.99999998e-05 46.8661,0.0349 47.0241,0.1019 C47.3421,0.2359 47.5961,0.4949 47.7281,0.8189 C47.7921,0.9799 47.8281,1.1519 47.8281,1.3239 L47.8281,6.6469 C47.8281,7.3799 47.2451,7.9719 46.5271,7.9719 C45.8081,7.9719 45.2261,7.3799 45.2261,6.6469 L45.2261,4.5239 L37.8201,12.0399 C37.7731,12.1089 37.7181,12.1749 37.6551,12.2369 L36.6641,13.2129 L35.6871,14.2049 C35.6261,14.2669 35.5601,14.3219 35.4901,14.3699"
        ></path>
      </g>
    </g>
  </g>
</svg>
