<svg
  width="49px"
  height="48px"
  viewBox="0 0 49 48"
  version="1.1"
  xmlns="http://www.w3.org/2000/svg"
  xmlns:xlink="http://www.w3.org/1999/xlink"
>
  <g stroke="none" stroke-width="1" fill="none" fill-rule="evenodd">
    <g transform="translate(-225.000000, -657.000000)" fill="#161616">
      <g transform="translate(225.000000, 657.000000)">
        <path
          d="M36.0394891,14.3698994 L28.5236124,21.7750446 L30.6468501,21.7750622 C31.3798819,21.7750683 31.9723749,22.3579716 31.9723809,23.0761132 C31.9723868,23.7942548 31.3799035,24.3771482 30.6468716,24.3771422 L25.324198,24.3770981 C25.151963,24.3770967 24.9797278,24.341932 24.8185154,24.2770139 C24.4947127,24.1458253 24.2356692,23.8915659 24.1020123,23.5737432 C24.0344949,23.415508 24.0000465,23.2464537 24.0000451,23.0773996 L24.0000024,17.9196404 C23.9986186,17.2014988 24.5911019,16.6186053 25.3241338,16.6186114 C26.0571656,16.6186174 26.6496586,17.2015207 26.6496645,17.9196623 L26.6496812,19.935721 L35.3568424,11.3568424 L43.935721,2.6496812 L41.9196623,2.64966451 C41.2015207,2.64965857 40.6186174,2.0571656 40.6186114,1.32413376 C40.6186053,0.591101914 41.2014988,-0.00138140399 41.9196404,2.4191453e-06 L47.0773996,4.5107572e-05 C47.2464537,4.65067557e-05 47.415508,0.034494891 47.5737432,0.102012291 C47.8915659,0.235669224 48.1458253,0.494712656 48.2770139,0.818515401 C48.341932,0.979727828 48.3770967,1.15196304 48.3770981,1.32419797 L48.3771422,6.64687164 C48.3771482,7.37990348 47.7942548,7.9723868 47.0761132,7.97238086 C46.3579716,7.97237491 45.7750683,7.37988195 45.7750622,6.64685011 L45.7750446,4.5236124 L38.3698994,12.0394891 C38.322408,12.1090343 38.2673434,12.175102 38.2047056,12.236583 L37.2133414,13.2133414 L36.236583,14.2047056 C36.175102,14.2673434 36.1090343,14.322408 36.0394891,14.3698994 Z"
          id="Combined-Shape-Copy"
          fill-rule="nonzero"
        ></path>
        <rect id="Rectangle-13" x="0" y="32" width="8" height="8"></rect>
        <rect id="Rectangle-13-Copy-2" x="0" y="16" width="8" height="8"></rect>
        <rect id="Rectangle-13-Copy-4" x="8" y="24" width="8" height="8"></rect>
        <rect id="Rectangle-13-Copy-10" x="8" y="8" width="8" height="8"></rect>
        <rect id="Rectangle-13-Copy-9" x="0" y="0" width="8" height="8"></rect>
        <rect
          id="Rectangle-13-Copy-13"
          x="16"
          y="0"
          width="8"
          height="8"
        ></rect>
        <rect
          id="Rectangle-13-Copy-5"
          x="16"
          y="32"
          width="8"
          height="8"
        ></rect>
        <rect
          id="Rectangle-13-Copy-7"
          x="32"
          y="32"
          width="8"
          height="8"
        ></rect>
        <rect id="Rectangle-13-Copy-3" x="8" y="40" width="8" height="8"></rect>
        <rect
          id="Rectangle-13-Copy-6"
          x="24"
          y="40"
          width="8"
          height="8"
        ></rect>
        <rect
          id="Rectangle-13-Copy-8"
          x="40"
          y="40"
          width="8"
          height="8"
        ></rect>
        <rect
          id="Rectangle-13-Copy-14"
          x="40"
          y="24"
          width="8"
          height="8"
        ></rect>
      </g>
    </g>
  </g>
</svg>
